<?xml version="1.0" standalone="no"?>
<!DOCTYPE svg PUBLIC "-//W3C//DTD SVG 20010904//EN"
 "http://www.w3.org/TR/2001/REC-SVG-20010904/DTD/svg10.dtd">
<svg version="1.0" xmlns="http://www.w3.org/2000/svg"
 width="700.000000pt" height="700.000000pt" viewBox="0 0 700.000000 700.000000"
 preserveAspectRatio="xMidYMid meet">
<metadata>
Created by potrace 1.14, written by Peter Selinger 2001-2017
</metadata>
<g transform="translate(0.000000,700.000000) scale(0.100000,-0.100000)"
fill="#000000" stroke="none">
<path d="M3484 6940 c-75 -28 -329 -449 -469 -776 -62 -144 -141 -369 -160
-454 -2 -8 -12 -51 -23 -95 -12 -44 -23 -100 -27 -125 -3 -25 -8 -52 -11 -61
-2 -9 -7 -34 -9 -55 -3 -22 -7 -50 -10 -64 -20 -112 -29 -616 -12 -690 8 -33
6 -37 -20 -50 -61 -32 -162 -97 -236 -153 -43 -32 -80 -57 -81 -55 -1 1 -23
35 -49 73 -164 249 -529 509 -942 669 -38 15 -79 31 -90 35 -159 66 -215 90
-295 133 -116 62 -239 140 -343 222 -44 33 -92 71 -109 82 -16 12 -46 37 -66
56 -76 70 -126 77 -174 26 l-31 -33 7 -160 c7 -166 9 -196 20 -280 74 -560
237 -1025 503 -1435 81 -124 146 -204 243 -300 121 -119 119 -115 84 -142
-150 -116 -351 -355 -450 -533 -15 -27 -35 -63 -44 -80 -71 -128 -159 -407
-185 -589 -18 -125 -24 -376 -12 -456 3 -19 9 -57 12 -85 34 -247 139 -520
283 -734 127 -189 252 -319 427 -447 225 -164 495 -270 785 -311 69 -10 335
-10 415 -1 127 15 273 50 395 95 102 38 273 119 319 153 16 11 34 20 40 20 6
0 11 4 11 9 0 5 8 12 18 15 27 9 198 147 274 223 37 37 69 65 71 62 45 -62
164 -187 238 -250 164 -139 424 -274 584 -303 17 -3 45 -10 63 -15 18 -5 35
-10 37 -10 3 1 36 -3 73 -7 476 -52 951 157 1274 561 210 263 354 607 393 940
3 28 8 67 11 89 8 49 7 306 -1 371 -41 343 -139 628 -301 871 -29 45 -56 88
-58 95 -3 8 16 31 42 52 95 78 223 211 266 276 140 212 226 482 270 851 7 57
16 216 21 364 4 117 15 232 30 331 3 18 17 88 29 140 18 84 72 260 130 422 14
40 26 81 26 92 0 27 -46 79 -73 83 -31 5 -104 -17 -226 -69 -610 -260 -1138
-676 -1465 -1155 -36 -54 -66 -100 -66 -102 0 -3 -9 -21 -21 -40 l-21 -36
-101 96 c-99 93 -203 173 -299 228 -51 29 -49 25 -27 120 14 57 17 203 6 298
-32 292 -160 610 -405 1003 -91 145 -167 295 -217 425 -18 46 -73 213 -80 240
-2 8 -18 71 -35 140 -33 136 -46 167 -71 180 -26 14 -62 18 -85 10z"/>
</g>
</svg>
